<?xml version="1.0" standalone="no"?>
<!DOCTYPE svg PUBLIC "-//W3C//DTD SVG 20010904//EN"
 "http://www.w3.org/TR/2001/REC-SVG-20010904/DTD/svg10.dtd">
<svg version="1.0" xmlns="http://www.w3.org/2000/svg"
 width="380.000000pt" height="420.000000pt" viewBox="0 0 380.000000 420.000000"
 preserveAspectRatio="xMidYMid meet">

<g transform="translate(0.000000,420.000000) scale(0.100000,-0.100000)"
fill="#000000" stroke="none">
<path d="M1787 4165 c-205 -110 -1697 -951 -1715 -968 -13 -12 -34 -40 -45
-62 l-22 -40 -3 -997 -3 -998 25 -37 c13 -21 34 -48 47 -60 13 -12 416 -241
894 -510 l870 -488 65 0 65 0 865 484 c740 415 873 492 918 538 l52 53 0 1002
c0 956 -1 1005 -19 1043 -25 53 -72 97 -151 138 -36 18 -423 234 -860 478
l-795 444 -70 2 c-59 3 -77 -1 -118 -22z m349 -680 c195 -34 418 -125 574
-236 137 -97 329 -301 385 -409 l14 -28 -297 -169 c-322 -184 -332 -189 -332
-170 0 18 -79 109 -141 162 -244 208 -634 208 -878 0 -256 -218 -324 -559
-174 -865 28 -57 57 -95 122 -160 95 -94 174 -142 301 -181 106 -33 274 -33
380 0 154 47 284 138 375 262 l42 57 84 -48 c46 -25 184 -102 306 -169 l223
-123 -37 -56 c-207 -325 -540 -552 -920 -629 -122 -24 -403 -25 -525 0 -373
75 -699 293 -906 607 -31 47 -59 87 -62 90 -14 13 -91 194 -114 270 -40 135
-56 249 -56 410 0 243 43 425 150 637 197 391 571 668 1010 748 105 19 366 19
476 0z"/>
</g>
</svg>
